<?xml version="1.0" encoding="UTF-8" standalone="no"?>
<!-- Created with Inkscape (http://www.inkscape.org/) -->

<svg
   width="500"
   height="700"
   viewBox="0 0 132.29166 185.20833"
   version="1.1"
   id="svg1"
   xml:space="preserve"
   xmlns="http://www.w3.org/2000/svg"
   xmlns:svg="http://www.w3.org/2000/svg"><defs
     id="defs1"><clipPath
       clipPathUnits="userSpaceOnUse"
       id="clipPath8"><ellipse
         style="fill:#000000;stroke:#000000;stroke-width:3.02635;stroke-linejoin:miter;stroke-dasharray:none;stroke-dashoffset:0;stroke-opacity:1;paint-order:normal"
         id="ellipse8"
         cx="55.92646"
         cy="56.073448"
         transform="rotate(-0.07519647)"
         rx="54.486828"
         ry="54.486824" /></clipPath></defs><g
     id="layer1"><g
       id="g1"
       transform="matrix(1.0617088,0,0,1.0617088,6.4281058,10.015908)"><ellipse
         style="fill:#ffffff;stroke:none;stroke-width:3.02635;stroke-linejoin:miter;stroke-dasharray:none;stroke-dashoffset:0;stroke-opacity:1;paint-order:normal"
         id="path8-2"
         cx="55.92646"
         cy="56.073448"
         transform="rotate(-0.07519647)"
         rx="54.486828"
         ry="54.486824" /><g
         id="g8"
         clip-path="url(#clipPath8)"><g
           id="g5"><path
             d="M 77.4624,78.9593 C 78.2802,68.3428 73.7143,58.8833 71.3291,55.4806 L 87.6847,48.335 c 4.9066,1.6333 6.474,17.3537 6.6444,25.0098 0,0 -3.5778,0.5104 -5.6222,2.0416 -2.085,1.5616 -5.6222,5.1041 -11.2445,3.5729 z"
             fill="#ffffff"
             stroke="#84b5d9"
             stroke-width="3"
             stroke-linecap="round"
             id="path1" /><path
             d="M 7.06239,52.159 C -5.55748,54.1782 -12.682,66.0659 -17.661,73.2769 c -0.8584,13.3918 -0.6181,41.1021 7.211,44.8111 7.82906,3.709 26.9553,1.545 35.5398,0 v 4.121 c 1.3736,0.515 5.0477,1.648 8.7562,2.06 3.7085,0.412 6.696,-1.202 7.7261,-2.06 v -9.787 c 0.5151,-0.343 2.9874,-1.957 8.7562,-5.666 7.211,-4.635 11.3315,-16.482 9.7863,-24.7229 -1.1589,-6.181 3.6055,-18.5427 6.1809,-26.7838 9.7863,2.0601 22.148,-1.0301 23.1781,-14.9369 C 90.1205,31.5801 80.7174,19.9868 63.2051,25.3752 45.6927,30.7636 48.268,52.159 41.5721,59.37 35.3913,53.1891 23.5446,49.5219 7.06239,52.159 Z"
             fill="#bae6fd"
             stroke="#0c4a6e"
             stroke-width="3"
             stroke-linecap="round"
             id="path3" /><path
             d="M 66.2955,55.2493 C 64.5786,54.7342 60.9387,53.6011 60.1146,53.189"
             stroke="#0284c7"
             stroke-opacity="0.37"
             stroke-width="3"
             stroke-linecap="round"
             id="path4"
             style="opacity:1;fill:none;stroke-width:3;stroke-linejoin:miter;stroke-dasharray:none;paint-order:normal" /><path
             d="m 41.5721,59.3698 c -0.6868,0.8585 -2.6784,2.7814 -5.1507,3.6055"
             stroke="#0284c7"
             stroke-opacity="0.37"
             stroke-width="3"
             stroke-linecap="round"
             id="path5"
             style="fill:none" /><circle
             cx="68.870796"
             cy="42.8876"
             r="2.0602801"
             fill="#000000"
             id="circle5" /></g><g
           id="g2"
           transform="matrix(0.08160718,0,0,0.08160718,76.994732,53.205469)"
           style="display:inline"><path
             style="color:#000000;font-style:normal;font-variant:normal;font-weight:normal;font-stretch:normal;font-size:medium;line-height:normal;font-family:sans-serif;font-variant-ligatures:normal;font-variant-position:normal;font-variant-caps:normal;font-variant-numeric:normal;font-variant-alternates:normal;font-feature-settings:normal;text-indent:0;text-align:start;text-decoration:none;text-decoration-line:none;text-decoration-style:solid;text-decoration-color:#000000;letter-spacing:normal;word-spacing:normal;text-transform:none;writing-mode:lr-tb;direction:ltr;text-orientation:mixed;dominant-baseline:auto;baseline-shift:baseline;text-anchor:start;white-space:normal;shape-padding:0;clip-rule:nonzero;display:inline;overflow:visible;visibility:visible;opacity:1;isolation:auto;mix-blend-mode:normal;color-interpolation:sRGB;color-interpolation-filters:linearRGB;solid-color:#000000;solid-opacity:1;vector-effect:none;fill:#a730b8;fill-opacity:1;fill-rule:nonzero;stroke:none;stroke-width:41.5748;stroke-linecap:butt;stroke-linejoin:miter;stroke-miterlimit:4;stroke-dasharray:none;stroke-dashoffset:0;stroke-opacity:1;color-rendering:auto;image-rendering:auto;shape-rendering:auto;text-rendering:auto;enable-background:accumulate"
             d="m 181.13086,275.13672 a 68.892408,68.892408 0 0 1 -29.46484,29.32812 l 161.75781,162.38868 38.99805,-19.76368 z m 213.36328,214.1875 -38.99805,19.76367 81.96289,82.2832 a 68.892409,68.892409 0 0 1 29.47071,-29.33203 z"
             id="path9722"
             transform="matrix(0.26458333,0,0,0.26458333,-6.6789703,32.495842)" /><path
             style="color:#000000;font-style:normal;font-variant:normal;font-weight:normal;font-stretch:normal;font-size:medium;line-height:normal;font-family:sans-serif;font-variant-ligatures:normal;font-variant-position:normal;font-variant-caps:normal;font-variant-numeric:normal;font-variant-alternates:normal;font-feature-settings:normal;text-indent:0;text-align:start;text-decoration:none;text-decoration-line:none;text-decoration-style:solid;text-decoration-color:#000000;letter-spacing:normal;word-spacing:normal;text-transform:none;writing-mode:lr-tb;direction:ltr;text-orientation:mixed;dominant-baseline:auto;baseline-shift:baseline;text-anchor:start;white-space:normal;shape-padding:0;clip-rule:nonzero;display:inline;overflow:visible;visibility:visible;opacity:1;isolation:auto;mix-blend-mode:normal;color-interpolation:sRGB;color-interpolation-filters:linearRGB;solid-color:#000000;solid-opacity:1;vector-effect:none;fill:#5496be;fill-opacity:1;fill-rule:nonzero;stroke:none;stroke-width:41.5748;stroke-linecap:butt;stroke-linejoin:miter;stroke-miterlimit:4;stroke-dasharray:none;stroke-dashoffset:0;stroke-opacity:1;color-rendering:auto;image-rendering:auto;shape-rendering:auto;text-rendering:auto;enable-background:accumulate"
             d="m 581.64648,339.39062 -91.57617,46.41016 6.75196,43.18945 103.61523,-52.51367 A 68.892409,68.892409 0 0 1 581.64648,339.39062 Z M 436.9082,412.74219 220.38281,522.47656 a 68.892408,68.892408 0 0 1 18.79492,37.08985 L 443.66016,455.93359 Z"
             id="path9729"
             transform="matrix(0.26458333,0,0,0.26458333,-6.6789703,32.495842)" /><path
             style="color:#000000;font-style:normal;font-variant:normal;font-weight:normal;font-stretch:normal;font-size:medium;line-height:normal;font-family:sans-serif;font-variant-ligatures:normal;font-variant-position:normal;font-variant-caps:normal;font-variant-numeric:normal;font-variant-alternates:normal;font-feature-settings:normal;text-indent:0;text-align:start;text-decoration:none;text-decoration-line:none;text-decoration-style:solid;text-decoration-color:#000000;letter-spacing:normal;word-spacing:normal;text-transform:none;writing-mode:lr-tb;direction:ltr;text-orientation:mixed;dominant-baseline:auto;baseline-shift:baseline;text-anchor:start;white-space:normal;shape-padding:0;clip-rule:nonzero;display:inline;overflow:visible;visibility:visible;opacity:1;isolation:auto;mix-blend-mode:normal;color-interpolation:sRGB;color-interpolation-filters:linearRGB;solid-color:#000000;solid-opacity:1;vector-effect:none;fill:#ce3d1a;fill-opacity:1;fill-rule:nonzero;stroke:none;stroke-width:41.5748;stroke-linecap:butt;stroke-linejoin:miter;stroke-miterlimit:4;stroke-dasharray:none;stroke-dashoffset:0;stroke-opacity:1;color-rendering:auto;image-rendering:auto;shape-rendering:auto;text-rendering:auto;enable-background:accumulate"
             d="M 367.27539,142.4375 262.79492,346.4082 293.64258,377.375 404.26562,161.41797 A 68.892408,68.892408 0 0 1 367.27539,142.4375 Z m -131.6543,257.02148 -52.92187,103.31446 a 68.892409,68.892409 0 0 1 36.98633,18.97851 l 46.78125,-91.32812 z"
             id="path9713"
             transform="matrix(0.26458333,0,0,0.26458333,-6.6789703,32.495842)" /><path
             style="color:#000000;font-style:normal;font-variant:normal;font-weight:normal;font-stretch:normal;font-size:medium;line-height:normal;font-family:sans-serif;font-variant-ligatures:normal;font-variant-position:normal;font-variant-caps:normal;font-variant-numeric:normal;font-variant-alternates:normal;font-feature-settings:normal;text-indent:0;text-align:start;text-decoration:none;text-decoration-line:none;text-decoration-style:solid;text-decoration-color:#000000;letter-spacing:normal;word-spacing:normal;text-transform:none;writing-mode:lr-tb;direction:ltr;text-orientation:mixed;dominant-baseline:auto;baseline-shift:baseline;text-anchor:start;white-space:normal;shape-padding:0;clip-rule:nonzero;display:inline;overflow:visible;visibility:visible;opacity:1;isolation:auto;mix-blend-mode:normal;color-interpolation:sRGB;color-interpolation-filters:linearRGB;solid-color:#000000;solid-opacity:1;vector-effect:none;fill:#d0188f;fill-opacity:1;fill-rule:nonzero;stroke:none;stroke-width:41.5748;stroke-linecap:butt;stroke-linejoin:miter;stroke-miterlimit:4;stroke-dasharray:none;stroke-dashoffset:0;stroke-opacity:1;color-rendering:auto;image-rendering:auto;shape-rendering:auto;text-rendering:auto;enable-background:accumulate"
             d="m 150.76758,304.91797 a 68.892408,68.892408 0 0 1 -34.41602,7.19531 68.892408,68.892408 0 0 1 -6.65039,-0.69531 l 30.90235,197.66211 a 68.892409,68.892409 0 0 1 34.41601,-7.19531 68.892409,68.892409 0 0 1 6.64649,0.69531 z"
             id="path1015"
             transform="matrix(0.26458333,0,0,0.26458333,-6.6789703,32.495842)" /><path
             style="color:#000000;font-style:normal;font-variant:normal;font-weight:normal;font-stretch:normal;font-size:medium;line-height:normal;font-family:sans-serif;font-variant-ligatures:normal;font-variant-position:normal;font-variant-caps:normal;font-variant-numeric:normal;font-variant-alternates:normal;font-feature-settings:normal;text-indent:0;text-align:start;text-decoration:none;text-decoration-line:none;text-decoration-style:solid;text-decoration-color:#000000;letter-spacing:normal;word-spacing:normal;text-transform:none;writing-mode:lr-tb;direction:ltr;text-orientation:mixed;dominant-baseline:auto;baseline-shift:baseline;text-anchor:start;white-space:normal;shape-padding:0;clip-rule:nonzero;display:inline;overflow:visible;visibility:visible;opacity:1;isolation:auto;mix-blend-mode:normal;color-interpolation:sRGB;color-interpolation-filters:linearRGB;solid-color:#000000;solid-opacity:1;vector-effect:none;fill:#5b36e9;fill-opacity:1;fill-rule:nonzero;stroke:none;stroke-width:41.5748;stroke-linecap:butt;stroke-linejoin:miter;stroke-miterlimit:4;stroke-dasharray:none;stroke-dashoffset:0;stroke-opacity:1;color-rendering:auto;image-rendering:auto;shape-rendering:auto;text-rendering:auto;enable-background:accumulate"
             d="m 239.3418,560.54492 a 68.892408,68.892408 0 0 1 0.7207,13.87696 68.892408,68.892408 0 0 1 -7.26758,27.17968 l 197.62891,31.71289 a 68.892409,68.892409 0 0 1 -0.72266,-13.8789 68.892409,68.892409 0 0 1 7.26953,-27.17774 z"
             id="path1674"
             transform="matrix(0.26458333,0,0,0.26458333,-6.6789703,32.495842)" /><path
             style="color:#000000;font-style:normal;font-variant:normal;font-weight:normal;font-stretch:normal;font-size:medium;line-height:normal;font-family:sans-serif;font-variant-ligatures:normal;font-variant-position:normal;font-variant-caps:normal;font-variant-numeric:normal;font-variant-alternates:normal;font-feature-settings:normal;text-indent:0;text-align:start;text-decoration:none;text-decoration-line:none;text-decoration-style:solid;text-decoration-color:#000000;letter-spacing:normal;word-spacing:normal;text-transform:none;writing-mode:lr-tb;direction:ltr;text-orientation:mixed;dominant-baseline:auto;baseline-shift:baseline;text-anchor:start;white-space:normal;shape-padding:0;clip-rule:nonzero;display:inline;overflow:visible;visibility:visible;opacity:1;isolation:auto;mix-blend-mode:normal;color-interpolation:sRGB;color-interpolation-filters:linearRGB;solid-color:#000000;solid-opacity:1;vector-effect:none;fill:#30b873;fill-opacity:1;fill-rule:nonzero;stroke:none;stroke-width:41.5748;stroke-linecap:butt;stroke-linejoin:miter;stroke-miterlimit:4;stroke-dasharray:none;stroke-dashoffset:0;stroke-opacity:1;color-rendering:auto;image-rendering:auto;shape-rendering:auto;text-rendering:auto;enable-background:accumulate"
             d="m 601.13281,377.19922 -91.21875,178.08203 a 68.892408,68.892408 0 0 1 36.99414,18.98242 L 638.125,396.18359 a 68.892409,68.892409 0 0 1 -36.99219,-18.98437 z"
             id="path1676"
             transform="matrix(0.26458333,0,0,0.26458333,-6.6789703,32.495842)" /><path
             style="color:#000000;font-style:normal;font-variant:normal;font-weight:normal;font-stretch:normal;font-size:medium;line-height:normal;font-family:sans-serif;font-variant-ligatures:normal;font-variant-position:normal;font-variant-caps:normal;font-variant-numeric:normal;font-variant-alternates:normal;font-feature-settings:normal;text-indent:0;text-align:start;text-decoration:none;text-decoration-line:none;text-decoration-style:solid;text-decoration-color:#000000;letter-spacing:normal;word-spacing:normal;text-transform:none;writing-mode:lr-tb;direction:ltr;text-orientation:mixed;dominant-baseline:auto;baseline-shift:baseline;text-anchor:start;white-space:normal;shape-padding:0;clip-rule:nonzero;display:inline;overflow:visible;visibility:visible;opacity:1;isolation:auto;mix-blend-mode:normal;color-interpolation:sRGB;color-interpolation-filters:linearRGB;solid-color:#000000;solid-opacity:1;vector-effect:none;fill:#ebe305;fill-opacity:1;fill-rule:nonzero;stroke:none;stroke-width:41.5748;stroke-linecap:butt;stroke-linejoin:miter;stroke-miterlimit:4;stroke-dasharray:none;stroke-dashoffset:0;stroke-opacity:1;color-rendering:auto;image-rendering:auto;shape-rendering:auto;text-rendering:auto;enable-background:accumulate"
             d="m 476.72266,125.33008 a 68.892408,68.892408 0 0 1 -29.47071,29.33203 l 141.26563,141.81055 a 68.892409,68.892409 0 0 1 29.46875,-29.33204 z"
             id="path1678"
             transform="matrix(0.26458333,0,0,0.26458333,-6.6789703,32.495842)" /><path
             style="color:#000000;font-style:normal;font-variant:normal;font-weight:normal;font-stretch:normal;font-size:medium;line-height:normal;font-family:sans-serif;font-variant-ligatures:normal;font-variant-position:normal;font-variant-caps:normal;font-variant-numeric:normal;font-variant-alternates:normal;font-feature-settings:normal;text-indent:0;text-align:start;text-decoration:none;text-decoration-line:none;text-decoration-style:solid;text-decoration-color:#000000;letter-spacing:normal;word-spacing:normal;text-transform:none;writing-mode:lr-tb;direction:ltr;text-orientation:mixed;dominant-baseline:auto;baseline-shift:baseline;text-anchor:start;white-space:normal;shape-padding:0;clip-rule:nonzero;display:inline;overflow:visible;visibility:visible;opacity:1;isolation:auto;mix-blend-mode:normal;color-interpolation:sRGB;color-interpolation-filters:linearRGB;solid-color:#000000;solid-opacity:1;vector-effect:none;fill:#f47601;fill-opacity:1;fill-rule:nonzero;stroke:none;stroke-width:41.5748;stroke-linecap:butt;stroke-linejoin:miter;stroke-miterlimit:4;stroke-dasharray:none;stroke-dashoffset:0;stroke-opacity:1;color-rendering:auto;image-rendering:auto;shape-rendering:auto;text-rendering:auto;enable-background:accumulate"
             d="m 347.78711,104.63086 -178.57617,90.49805 a 68.892409,68.892409 0 0 1 18.79297,37.08593 l 178.57421,-90.50195 a 68.892408,68.892408 0 0 1 -18.79101,-37.08203 z"
             id="path1680"
             transform="matrix(0.26458333,0,0,0.26458333,-6.6789703,32.495842)" /><path
             style="color:#000000;font-style:normal;font-variant:normal;font-weight:normal;font-stretch:normal;font-size:medium;line-height:normal;font-family:sans-serif;font-variant-ligatures:normal;font-variant-position:normal;font-variant-caps:normal;font-variant-numeric:normal;font-variant-alternates:normal;font-feature-settings:normal;text-indent:0;text-align:start;text-decoration:none;text-decoration-line:none;text-decoration-style:solid;text-decoration-color:#000000;letter-spacing:normal;word-spacing:normal;text-transform:none;writing-mode:lr-tb;direction:ltr;text-orientation:mixed;dominant-baseline:auto;baseline-shift:baseline;text-anchor:start;white-space:normal;shape-padding:0;clip-rule:nonzero;display:inline;overflow:visible;visibility:visible;opacity:1;isolation:auto;mix-blend-mode:normal;color-interpolation:sRGB;color-interpolation-filters:linearRGB;solid-color:#000000;solid-opacity:1;vector-effect:none;fill:#57c115;fill-opacity:1;fill-rule:nonzero;stroke:none;stroke-width:41.5748;stroke-linecap:butt;stroke-linejoin:miter;stroke-miterlimit:4;stroke-dasharray:none;stroke-dashoffset:0;stroke-opacity:1;color-rendering:auto;image-rendering:auto;shape-rendering:auto;text-rendering:auto;enable-background:accumulate"
             d="m 446.92578,154.82617 a 68.892408,68.892408 0 0 1 -34.98242,7.48242 68.892408,68.892408 0 0 1 -6.0293,-0.63281 l 15.81836,101.29102 43.16211,6.92578 z m -16,167.02735 37.40039,239.48242 a 68.892409,68.892409 0 0 1 33.91406,-6.94336 68.892409,68.892409 0 0 1 7.20704,0.79101 L 474.08984,328.77734 Z"
             id="path9758"
             transform="matrix(0.26458333,0,0,0.26458333,-6.6789703,32.495842)" /><path
             style="color:#000000;font-style:normal;font-variant:normal;font-weight:normal;font-stretch:normal;font-size:medium;line-height:normal;font-family:sans-serif;font-variant-ligatures:normal;font-variant-position:normal;font-variant-caps:normal;font-variant-numeric:normal;font-variant-alternates:normal;font-feature-settings:normal;text-indent:0;text-align:start;text-decoration:none;text-decoration-line:none;text-decoration-style:solid;text-decoration-color:#000000;letter-spacing:normal;word-spacing:normal;text-transform:none;writing-mode:lr-tb;direction:ltr;text-orientation:mixed;dominant-baseline:auto;baseline-shift:baseline;text-anchor:start;white-space:normal;shape-padding:0;clip-rule:nonzero;display:inline;overflow:visible;visibility:visible;opacity:1;isolation:auto;mix-blend-mode:normal;color-interpolation:sRGB;color-interpolation-filters:linearRGB;solid-color:#000000;solid-opacity:1;vector-effect:none;fill:#dbb210;fill-opacity:1;fill-rule:nonzero;stroke:none;stroke-width:41.5748;stroke-linecap:butt;stroke-linejoin:miter;stroke-miterlimit:4;stroke-dasharray:none;stroke-dashoffset:0;stroke-opacity:1;color-rendering:auto;image-rendering:auto;shape-rendering:auto;text-rendering:auto;enable-background:accumulate"
             d="m 188.13086,232.97461 a 68.892408,68.892408 0 0 1 0.75781,14.0957 68.892408,68.892408 0 0 1 -7.16015,26.98242 l 101.36914,16.28125 19.92382,-38.9082 z m 173.73633,27.90039 -19.92578,38.91211 239.51367,38.4668 a 68.892409,68.892409 0 0 1 -0.69531,-13.71875 68.892409,68.892409 0 0 1 7.34961,-27.32422 z"
             id="path9760"
             transform="matrix(0.26458333,0,0,0.26458333,-6.6789703,32.495842)" /><circle
             style="fill:#ffca00;fill-opacity:0.995968;stroke:none;stroke-width:0.264583;stroke-opacity:0.960784"
             id="path817"
             cx="106.26596"
             cy="51.535553"
             r="16.570711"
             transform="rotate(3.1178174)" /><circle
             id="path819"
             style="fill:#64ff00;fill-opacity:0.995968;stroke:none;stroke-width:0.264583;stroke-opacity:0.960784"
             cx="171.42836"
             cy="110.19328"
             r="16.570711"
             transform="rotate(3.1178174)" /><circle
             id="path823"
             style="fill:#00a3ff;fill-opacity:0.995968;stroke:none;stroke-width:0.264583;stroke-opacity:0.960784"
             cx="135.76379"
             cy="190.27704"
             r="16.570711"
             transform="rotate(3.1178174)" /><circle
             style="fill:#9500ff;fill-opacity:0.995968;stroke:none;stroke-width:0.264583;stroke-opacity:0.960784"
             id="path825"
             cx="48.559471"
             cy="181.1138"
             r="16.570711"
             transform="rotate(3.1178174)" /><circle
             id="path827"
             style="fill:#ff0000;fill-opacity:0.995968;stroke:none;stroke-width:0.264583;stroke-opacity:0.960784"
             cx="30.328812"
             cy="95.366837"
             r="16.570711"
             transform="rotate(3.1178174)" /></g></g><circle
         style="opacity:1;fill:none;stroke:#84b5d9;stroke-width:4.91342;stroke-linejoin:miter;stroke-dasharray:none;stroke-dashoffset:0;stroke-opacity:1;paint-order:normal"
         id="path8"
         cx="55.926456"
         cy="56.073448"
         transform="rotate(-0.07519625)"
         r="53.543289" /></g><path
       d="m 16.27974,110.6915 v 2.11579 h -5.533595 v -2.11579 z m -3.301556,-2.29016 c -0.093,0.58126 -0.26738,1.34852 -0.453383,1.94141 h -1.697279 l -0.8370149,-0.38363 v 9.06765 H 10.13001 c 0.325505,0 0.616135,-0.19763 0.616135,-0.29063 v -0.51151 h 5.533595 v 0.79052 h 0.104627 c 0.279005,0 0.651012,-0.20926 0.674262,-0.30226 v -7.85863 c 0.232504,-0.0581 0.418507,-0.15113 0.499884,-0.24413 l -0.964892,-0.76727 -0.441758,0.49989 h -3.266681 c 0.395257,-0.46501 0.767263,-1.01139 0.999767,-1.44153 0.255755,-0.0116 0.395257,-0.12787 0.430133,-0.26738 z m -2.232039,4.74308 h 5.533595 v 2.18554 h -5.533595 z m 0,2.51104 h 5.533595 v 2.23204 h -5.533595 z"
       id="text32"
       style="font-size:11.6252px;font-family:'Noto Serif CJK JP';-inkscape-font-specification:'Noto Serif CJK JP';text-align:center;fill:#0c4a6e;stroke-width:0.242191"
       transform="scale(0.80443197,1.2431132)"
       aria-label="自" /><path
       d="m 23.347863,108.41296 c -0.58126,1.70891 -1.894907,3.78982 -3.627062,5.05697 l 0.116252,0.15112 c 2.046035,-1.10439 3.499185,-2.9993 4.243198,-4.58032 0.29063,0.0233 0.395257,-0.0349 0.441757,-0.17438 z m 2.987677,-0.0349 -0.197629,0.10463 c 0.651011,2.05766 2.115787,3.82469 3.696814,4.87095 0.139502,-0.372 0.395257,-0.58126 0.709137,-0.60451 l 0.03488,-0.12787 c -1.662404,-0.81377 -3.510811,-2.4413 -4.243198,-4.2432 z m -4.987211,4.60358 0.104627,0.33713 h 2.441292 c -0.104627,1.72053 -0.569635,3.80144 -3.708439,5.53359 l 0.151127,0.18601 c 3.592187,-1.61591 4.196698,-3.80144 4.394326,-5.7196 h 2.836549 c -0.139503,2.31341 -0.418507,4.20832 -0.813764,4.55708 -0.127877,0.11625 -0.244129,0.1395 -0.488259,0.1395 -0.279004,0 -1.313647,-0.093 -1.918158,-0.15113 l -0.01162,0.20926 c 0.534759,0.0697 1.13927,0.20925 1.348523,0.33713 0.174378,0.11625 0.24413,0.33713 0.232504,0.56963 0.58126,0 1.046268,-0.15113 1.371774,-0.46501 0.569635,-0.52313 0.906766,-2.53429 1.046268,-5.10346 0.244129,-0.0233 0.395257,-0.093 0.476633,-0.17438 l -0.89514,-0.74401 -0.453383,0.48826 z"
       id="text31"
       style="font-size:11.6252px;font-family:'Noto Serif CJK JP';-inkscape-font-specification:'Noto Serif CJK JP';text-align:center;fill:#0c4a6e;stroke-width:0.242191"
       transform="scale(0.80443197,1.2431132)"
       aria-label="分" /><path
       d="m 40.634534,111.62152 c 0.174378,0 0.302255,-0.10463 0.302255,-0.30226 0,-0.22087 -0.116252,-0.43013 -0.406882,-0.68588 -0.29063,-0.27901 -0.732387,-0.54639 -1.325273,-0.79052 l -0.151127,0.20926 c 0.488258,0.34875 0.802139,0.72076 1.046268,1.02302 0.232504,0.29063 0.348756,0.54638 0.534759,0.54638 z m -1.76703,6.90537 c 0.685886,0 1.197395,-0.0697 1.557776,-0.15113 0.337131,-0.0697 0.651012,-0.19763 0.651012,-0.43013 0,-0.26738 -0.313881,-0.39526 -0.58126,-0.39526 -0.337131,0 -0.697512,0.22088 -1.871658,0.22088 -0.999767,0 -1.708904,-0.26738 -2.115786,-0.89514 -0.220879,-0.34876 -0.325506,-0.76726 -0.383632,-1.11602 l -0.29063,0.0465 c 0.02325,0.40688 0.05813,0.84864 0.255755,1.2904 0.372006,1.02302 1.429899,1.4299 2.778423,1.4299 z m -0.604511,-4.23157 0.139503,0.20925 c 0.395256,-0.19763 0.953266,-0.47663 1.302022,-0.60451 0.302255,-0.12788 0.476633,-0.17438 0.697512,-0.186 0.279005,-0.0233 0.465008,-0.0814 0.465008,-0.29063 0,-0.19763 -0.139502,-0.37201 -0.406882,-0.51151 -0.279005,-0.12788 -0.802139,-0.29063 -1.581027,-0.29063 -0.767263,0 -1.546152,0.20925 -2.104161,0.43013 l 0.08138,0.26738 c 0.499884,-0.10463 1.034643,-0.17438 1.546152,-0.17438 0.348756,0 0.744012,0.0349 1.023017,0.1395 0.104627,0.0349 0.151128,0.093 0.05813,0.16276 -0.151127,0.15112 -0.825389,0.59288 -1.220646,0.84864 z m 3.417809,-3.47594 c 0.162753,0 0.279005,-0.093 0.279005,-0.29063 0,-0.24413 -0.116252,-0.46501 -0.418507,-0.72076 -0.29063,-0.24413 -0.720763,-0.45338 -1.336898,-0.68589 l -0.127878,0.20926 c 0.523134,0.36038 0.790514,0.63938 1.046269,0.93001 0.255754,0.29063 0.372006,0.55801 0.558009,0.55801 z m -8.45152,1.70891 c 0.418507,0 0.906765,-0.0581 1.325272,-0.13951 -0.127877,0.48826 -0.279004,0.97652 -0.430132,1.40665 -0.58126,1.62753 -1.232271,2.79005 -1.813531,3.67357 -0.186003,0.30225 -0.29063,0.4185 -0.29063,0.67426 0,0.25575 0.151127,0.47663 0.337131,0.47663 0.244129,0 0.360381,-0.10463 0.511508,-0.37201 0.511509,-0.81376 1.243897,-2.68542 1.790281,-4.25482 0.209254,-0.55801 0.406882,-1.18577 0.569635,-1.7554 0.837014,-0.20926 1.755405,-0.53476 2.01116,-0.65102 0.430132,-0.186 0.558009,-0.30225 0.558009,-0.52313 0,-0.20925 -0.302255,-0.32551 -0.499883,-0.32551 -0.093,0 -0.220879,0.0581 -0.395257,0.16276 -0.360381,0.186 -0.84864,0.40688 -1.464775,0.61613 l 0.232504,-0.82539 c 0.127877,-0.45338 0.29063,-0.73238 0.29063,-0.93001 -0.01163,-0.26738 -0.744013,-0.54639 -1.150895,-0.56964 -0.29063,-0.0116 -0.499884,0.0233 -0.744013,0.0814 l -0.02325,0.26738 c 0.244129,0.0465 0.511508,0.11625 0.732387,0.19763 0.209254,0.10462 0.279005,0.20925 0.255755,0.46501 -0.03488,0.36038 -0.151128,0.90676 -0.302256,1.51127 -0.430132,0.10463 -0.964891,0.186 -1.511276,0.186 -0.558009,-0.0116 -0.91839,-0.22087 -1.406649,-0.66263 l -0.197628,0.15113 c 0.372006,0.88351 0.930016,1.13927 1.615903,1.13927 z"
       id="text30"
       style="font-size:11.6252px;font-family:'Noto Serif CJK JP';-inkscape-font-specification:'Noto Serif CJK JP';text-align:center;fill:#0c4a6e;stroke-width:0.242191"
       transform="scale(0.80443197,1.2431132)"
       aria-label="だ" /><path
       d="m 45.470619,118.18976 c 0.186004,0 0.337131,-0.10463 0.337131,-0.31388 0,-0.39526 -0.174378,-0.53476 -0.174378,-0.88352 0,-0.25575 0.05813,-0.52313 0.127877,-0.79051 0.116252,-0.39526 0.53476,-1.59265 0.813764,-2.38317 l -0.255754,-0.12787 c -0.325506,0.80213 -0.860265,2.10416 -1.057893,2.44129 -0.093,0.186 -0.186003,0.17438 -0.279005,0 -0.127877,-0.26738 -0.244129,-0.68589 -0.244129,-1.34853 0,-1.01139 0.430132,-2.13903 0.767263,-2.88305 0.162753,-0.36038 0.348756,-0.69751 0.348756,-0.95326 0,-0.51151 -0.546384,-1.08115 -0.802139,-1.27877 -0.174378,-0.12788 -0.337131,-0.22088 -0.616136,-0.33713 l -0.162752,0.17437 c 0.441757,0.46501 0.697512,0.82539 0.697512,1.25552 0,0.81377 -0.767264,2.61568 -0.767264,4.09208 0,1.53452 0.383632,2.40641 0.709138,2.91792 0.139502,0.2325 0.325505,0.41851 0.558009,0.41851 z m 3.766565,-5.34759 c 0.465008,0 0.918391,-0.0465 1.360149,-0.11626 0.0465,1.1509 0.116252,2.7203 -0.302256,3.67357 -0.441757,1.11602 -1.174145,1.67403 -2.220413,2.23204 l 0.139503,0.24412 c 1.232271,-0.43013 2.208788,-0.97651 2.743547,-2.13903 0.523134,-1.06952 0.406882,-2.91793 0.337131,-4.13857 0.662636,-0.15113 1.220646,-0.34876 1.557776,-0.49989 0.232504,-0.10462 0.325506,-0.20925 0.325506,-0.39525 0,-0.23251 -0.348756,-0.36039 -0.592885,-0.36039 -0.093,0 -0.209254,0.12788 -0.662637,0.31389 -0.174378,0.0697 -0.406882,0.15112 -0.662636,0.22087 -0.02325,-0.47663 -0.03488,-0.94164 -0.02325,-1.20902 0,-0.4185 0.174378,-0.62776 0.174378,-0.81376 0,-0.30226 -0.720763,-0.60451 -1.16252,-0.60451 -0.209254,0 -0.604511,0.093 -0.860265,0.19763 l 0.02325,0.24413 c 0.255755,0.0233 0.58126,0.0465 0.767263,0.11625 0.174378,0.0465 0.24413,0.11625 0.26738,0.372 0.03488,0.32551 0.08138,1.18578 0.116252,1.87166 -0.441758,0.093 -0.906766,0.16276 -1.302022,0.16276 -0.651012,0 -1.16252,-0.20926 -1.801906,-0.63939 l -0.151128,0.20925 c 0.592885,0.80214 1.243896,1.0579 1.929783,1.0579 z"
       id="text29"
       style="font-size:11.6252px;font-family:'Noto Serif CJK JP';-inkscape-font-specification:'Noto Serif CJK JP';text-align:center;fill:#0c4a6e;stroke-width:0.242191"
       transform="scale(0.80443197,1.2431132)"
       aria-label="け" /><path
       d="m 59.513859,117.92238 0.0465,0.26738 c 3.801441,-0.24413 5.010461,-2.22042 5.010461,-4.1502 0,-2.40642 -1.848406,-3.97582 -4.243198,-3.97582 -1.243896,0 -2.441292,0.39526 -3.394558,1.2439 -0.988142,0.88351 -1.546152,2.09254 -1.546152,3.26668 0,1.4299 0.813764,2.66217 1.592653,2.66217 1.18577,0 2.534293,-2.25529 3.022552,-3.65031 0.232504,-0.66264 0.360381,-1.31365 0.360381,-1.87166 0,-0.45338 -0.232504,-0.86026 -0.499884,-1.23227 l 0.418508,-0.0232 c 1.918158,0 3.452684,1.32527 3.452684,3.39456 0,2.10416 -1.371774,3.56893 -4.219948,4.06882 z m -0.08138,-7.37038 c 0.197628,0.34876 0.325506,0.65101 0.325506,1.06952 0,0.52313 -0.197629,1.23227 -0.418508,1.79028 -0.476633,1.10439 -1.546151,2.94118 -2.313415,2.94118 -0.476633,0 -0.988142,-0.84864 -0.988142,-1.96466 0,-1.02302 0.453383,-1.96466 1.197396,-2.68542 0.592885,-0.58126 1.383399,-0.98815 2.197163,-1.1509 z"
       id="text28"
       style="font-size:11.6252px;font-family:'Noto Serif CJK JP';-inkscape-font-specification:'Noto Serif CJK JP';text-align:center;fill:#0c4a6e;stroke-width:0.242191"
       transform="scale(0.80443197,1.2431132)"
       aria-label="の" /><path
       d="m 67.884005,118.29438 0.139503,0.22088 c 3.766565,-1.20902 5.893976,-3.40618 7.289,-6.24273 0.186004,-0.37201 0.697512,-0.60451 0.697512,-0.98814 0,-0.41851 -1.18577,-1.44153 -1.720529,-1.44153 -0.325506,0 -0.465008,0.24413 -0.941641,0.34876 -0.627761,0.1395 -3.557312,0.45338 -4.487328,0.45338 -0.430132,0 -0.720762,-0.29063 -1.046268,-0.61613 l -0.162753,0.0697 c 0,0.30225 0,0.52313 0.06975,0.80214 0.116252,0.44175 0.744012,1.19739 1.267146,1.19739 0.26738,0 0.569635,-0.26738 0.837015,-0.33713 0.662636,-0.19763 3.22018,-0.72076 4.010694,-0.72076 0.08138,0 0.127877,0.0349 0.104627,0.1395 -0.569635,2.54592 -2.88305,5.45222 -6.05673,7.11462 z"
       id="text27"
       style="font-weight:bold;font-size:11.6252px;font-family:'Noto Serif CJK JP';-inkscape-font-specification:'Noto Serif CJK JP Bold';text-align:center;fill:#0c4a6e;stroke-width:0.242191"
       transform="scale(0.80443197,1.2431132)"
       aria-label="フ" /><path
       d="m 80.799608,114.08606 c 0.279005,0 0.616136,-0.0814 1.174145,-0.17438 0.116252,0.23251 0.174378,0.51151 0.174378,0.90677 0,0.48826 -0.01163,1.10439 -0.0465,1.62753 -0.976516,0.093 -1.953033,0.17438 -2.394791,0.17438 -0.360381,0 -0.651011,-0.12788 -0.918391,-0.37201 l -0.104626,0.0349 c 0,0.31388 0.02325,0.47663 0.093,0.63938 0.116252,0.31388 0.674262,0.88352 1.046268,0.88352 0.26738,0 0.639386,-0.19763 1.104394,-0.31388 0.697512,-0.19763 1.767031,-0.33713 2.627295,-0.33713 1.336898,0 2.313415,0.34875 2.697047,0.34875 0.279005,0 0.465008,-0.22088 0.465008,-0.48826 0,-0.38363 -0.930016,-0.95326 -1.4299,-0.96489 -0.162752,0 -0.279005,0.12788 -0.825389,0.186 l -1.325273,0.11626 c 0.0465,-0.52314 0.116252,-0.99977 0.186003,-1.36015 0.0465,-0.24413 0.197629,-0.45338 0.197629,-0.63939 0,-0.20925 -0.255755,-0.40688 -0.592885,-0.55801 1.092768,-0.12787 1.74378,-0.15113 2.069285,-0.15113 0.348756,0 0.488259,-0.25575 0.488259,-0.49988 0,-0.31388 -0.837015,-0.68589 -1.383399,-0.68589 -0.197629,0 -0.26738,0.27901 -1.348523,0.47664 -0.616136,0.11625 -1.371774,0.19763 -1.894908,0.19763 -0.372006,0 -0.697512,-0.16276 -0.999767,-0.39526 l -0.093,0.0697 c 0.0465,0.22088 0.139503,0.47663 0.29063,0.72076 0.174378,0.29063 0.488259,0.55801 0.744013,0.55801 z"
       id="text26"
       style="font-weight:bold;font-size:11.6252px;font-family:'Noto Serif CJK JP';-inkscape-font-specification:'Noto Serif CJK JP Bold';text-align:center;fill:#0c4a6e;stroke-width:0.242191"
       transform="scale(0.80443197,1.2431132)"
       aria-label="ェ" /><path
       d="m 98.725665,111.38902 c 0.209254,0 0.395257,-0.18601 0.395257,-0.39526 0,-0.25576 -0.104627,-0.44176 -0.348756,-0.65101 -0.325506,-0.27901 -0.837015,-0.48826 -1.418275,-0.65101 l -0.116252,0.15112 c 0.523134,0.41851 0.778889,0.82539 0.999767,1.12765 0.186004,0.25575 0.279005,0.41851 0.488259,0.41851 z m -5.952103,-0.34876 c 0.988142,0 2.8598,-0.30226 3.77819,-0.51151 0.372007,-0.0814 0.488259,-0.24413 0.488259,-0.47663 0,-0.45339 -0.488259,-0.69751 -1.255522,-0.69751 -0.174378,0 -0.337131,0.16275 -0.918391,0.31388 -0.476633,0.12787 -1.371773,0.34875 -2.220413,0.34875 -0.383631,0 -0.790513,-0.0349 -1.267147,-0.33713 l -0.116252,0.11625 c 0.418508,0.82539 0.790514,1.2439 1.511276,1.2439 z m 6.870494,-0.66264 c 0.267379,0 0.372004,-0.20925 0.372004,-0.4185 0,-0.25576 -0.1395,-0.48826 -0.43013,-0.69752 -0.302255,-0.19762 -0.744013,-0.372 -1.348524,-0.52313 l -0.104626,0.16275 c 0.488258,0.36038 0.732387,0.72077 0.976517,1.03465 0.209253,0.279 0.302255,0.44175 0.534759,0.44175 z m -8.846778,3.60382 c 0.348756,0 0.767264,-0.20926 1.16252,-0.32551 0.372007,-0.11625 1.209021,-0.30226 1.976284,-0.41851 0.08138,0.12788 0.104627,0.25576 0.104627,0.38363 0,0.9184 -0.883515,3.47594 -3.417809,5.21972 l 0.174378,0.20925 c 2.61567,-1.11602 3.766565,-2.88305 4.35945,-4.19669 0.255755,-0.56964 0.55801,-0.69752 0.55801,-0.98815 0,-0.25575 -0.279005,-0.49988 -0.697512,-0.75563 0.790514,-0.0814 1.534526,-0.11626 2.046035,-0.11626 0.662637,0 1.255522,0.12788 1.511276,0.12788 0.313881,0 0.488259,-0.093 0.488259,-0.47663 0,-0.47664 -0.778889,-0.84864 -1.511276,-0.84864 -0.116252,0 -0.360382,0.1395 -1.150895,0.2325 -1.569402,0.17438 -4.987211,0.68589 -5.766099,0.68589 -0.360382,0 -0.569635,-0.22088 -0.87189,-0.49988 l -0.139503,0.0581 c -0.02325,0.27901 -0.01162,0.55801 0.06975,0.76726 0.139503,0.39526 0.720763,0.95327 1.104394,0.94165 z"
       id="text25"
       style="font-weight:bold;font-size:11.6252px;font-family:'Noto Serif CJK JP';-inkscape-font-specification:'Noto Serif CJK JP Bold';text-align:center;fill:#0c4a6e;stroke-width:0.242191"
       transform="scale(0.80443197,1.2431132)"
       aria-label="デ" /><path
       d="m 105.49154,118.81752 c 0.372,0 0.56963,-0.29063 0.56963,-0.67426 0,-0.44176 -0.0814,-1.66241 -0.0465,-2.82493 0.0116,-0.26738 0.093,-0.44175 0.093,-0.60451 0,-0.186 -0.2325,-0.36038 -0.53476,-0.58126 0.51151,-0.47663 0.94165,-0.94164 1.2439,-1.24389 0.24413,-0.23251 0.47663,-0.23251 0.47663,-0.52314 0,-0.34875 -0.58126,-0.87189 -1.11602,-1.02302 -0.29063,-0.093 -0.59288,-0.0697 -0.84864,-0.0465 l -0.0349,0.13951 c 0.20925,0.10462 0.49988,0.30225 0.49988,0.48825 0,0.68589 -2.46454,3.34806 -4.5687,4.58033 l 0.093,0.16276 c 1.54615,-0.46501 2.94118,-1.45315 3.59219,-1.96466 0.0233,0.093 0.0349,0.186 0.0349,0.30225 0,0.39526 0,1.22065 -0.11625,2.18554 -0.0349,0.29063 -0.093,0.49988 -0.093,0.66264 0,0.49988 0.24413,0.96489 0.75564,0.96489 z"
       id="text24"
       style="font-weight:bold;font-size:11.6252px;font-family:'Noto Serif CJK JP';-inkscape-font-specification:'Noto Serif CJK JP Bold';text-align:center;fill:#0c4a6e;stroke-width:0.242191"
       transform="scale(0.80443197,1.2431132)"
       aria-label="ィ" /><path
       d="m 120.05791,112.00515 c 0.25576,0 0.43013,-0.186 0.43013,-0.43013 0,-0.22088 -0.093,-0.41851 -0.33713,-0.65101 -0.36038,-0.32551 -0.91839,-0.54639 -1.55777,-0.72076 l -0.11626,0.16275 c 0.54639,0.46501 0.83702,0.87189 1.0579,1.18577 0.186,0.279 0.33713,0.45338 0.52313,0.45338 z m -9.11416,5.23134 0.13951,0.19763 c 1.83678,-0.80214 3.72006,-2.30179 4.7082,-3.51081 0.25576,-0.30226 0.62776,-0.49988 0.62776,-0.79051 0,-0.51151 -0.79051,-1.54616 -1.59265,-1.59266 -0.29063,-0.0232 -0.66263,0.0349 -0.89514,0.0814 l -0.0349,0.17438 c 0.43013,0.22088 0.76726,0.53476 0.76726,0.86026 0,0.81377 -1.90653,3.26668 -3.72007,4.58033 z m 9.83492,-0.39526 c 0.47664,0 0.81377,-0.5115 0.79052,-1.09276 -0.0814,-1.67403 -2.15066,-3.44106 -4.12695,-4.25483 l -0.1395,0.18601 c 1.39502,1.16252 2.13904,2.54591 2.63892,4.19669 0.17438,0.59289 0.36038,0.97652 0.83701,0.96489 z m 0.39526,-5.76609 c 0.24413,0 0.38363,-0.16276 0.38363,-0.40689 0,-0.26738 -0.11625,-0.49988 -0.40688,-0.72076 -0.32551,-0.24413 -0.86026,-0.43013 -1.51128,-0.56963 l -0.10462,0.15112 c 0.60451,0.46501 0.84864,0.80214 1.05789,1.06952 0.22088,0.29063 0.36038,0.47664 0.58126,0.47664 z"
       id="text23"
       style="font-weight:bold;font-size:11.6252px;font-family:'Noto Serif CJK JP';-inkscape-font-specification:'Noto Serif CJK JP Bold';text-align:center;fill:#0c4a6e;stroke-width:0.242191"
       transform="scale(0.80443197,1.2431132)"
       aria-label="バ" /><path
       d="m 124.78937,115.06258 c 0.44175,0 0.61613,-0.27901 1.45315,-0.36038 0.89514,-0.10463 3.49918,-0.26738 4.3827,-0.26738 0.81376,0 1.22064,0.0349 1.68565,0.0349 0.48826,0 0.76726,-0.16275 0.76726,-0.49988 0,-0.49988 -0.60451,-0.86026 -1.30202,-0.86026 -0.279,0 -0.80214,0.093 -1.58103,0.16275 -0.70913,0.0581 -4.21994,0.29063 -5.46384,0.29063 -0.61614,0 -0.81376,-0.31388 -1.16252,-0.77889 l -0.19763,0.0697 c -0.0349,0.27901 -0.0697,0.61614 0.0349,0.88352 0.20925,0.56963 0.93001,1.32527 1.3834,1.32527 z"
       id="text22"
       style="font-weight:bold;font-size:11.6252px;font-family:'Noto Serif CJK JP';-inkscape-font-specification:'Noto Serif CJK JP Bold';text-align:center;fill:#0c4a6e;stroke-width:0.242191"
       transform="scale(0.80443197,1.2431132)"
       aria-label="ー" /><path
       d="m 143.12231,118.01538 c 0.46501,0 0.72076,-0.39526 0.72076,-0.75564 0,-1.27877 -1.7089,-2.38316 -3.61543,-2.97605 0.75564,-0.83701 1.36015,-1.83678 1.7554,-2.41804 0.1395,-0.19763 0.67426,-0.37201 0.67426,-0.70914 0,-0.372 -1.04626,-1.26715 -1.54615,-1.26715 -0.24413,0 -0.44176,0.33714 -0.73239,0.40689 -0.558,0.1395 -2.59241,0.52313 -3.39455,0.52313 -0.39526,0 -0.72077,-0.33713 -0.97652,-0.67426 l -0.19763,0.0814 c -0.0116,0.31388 0.0116,0.61613 0.093,0.84864 0.13951,0.43013 0.68589,1.10439 1.1974,1.10439 0.3255,0 0.46501,-0.27901 0.84864,-0.40688 0.58126,-0.19763 2.06928,-0.63939 2.53429,-0.68589 0.12788,0 0.19763,0.0465 0.12788,0.22088 -0.94164,2.26691 -3.80144,5.23134 -6.53336,6.64961 l 0.12787,0.24413 c 2.82493,-0.87189 4.62683,-2.48779 5.69635,-3.58056 1.08115,0.72076 1.53453,1.54615 2.06929,2.42967 0.39525,0.61613 0.69751,0.96489 1.15089,0.96489 z"
       id="text21"
       style="font-weight:bold;font-size:11.6252px;font-family:'Noto Serif CJK JP';-inkscape-font-specification:'Noto Serif CJK JP Bold';text-align:center;fill:#0c4a6e;stroke-width:0.242191"
       transform="scale(0.80443197,1.2431132)"
       aria-label="ス" /><path
       d="m 150.42294,117.92238 0.0465,0.26738 c 3.80144,-0.24413 5.01046,-2.22042 5.01046,-4.1502 0,-2.40642 -1.84841,-3.97582 -4.2432,-3.97582 -1.2439,0 -2.44129,0.39526 -3.39456,1.2439 -0.98814,0.88351 -1.54615,2.09254 -1.54615,3.26668 0,1.4299 0.81376,2.66217 1.59265,2.66217 1.18577,0 2.5343,-2.25529 3.02255,-3.65031 0.23251,-0.66264 0.36039,-1.31365 0.36039,-1.87166 0,-0.45338 -0.23251,-0.86026 -0.49989,-1.23227 l 0.41851,-0.0232 c 1.91816,0 3.45268,1.32527 3.45268,3.39456 0,2.10416 -1.37177,3.56893 -4.21994,4.06882 z m -0.0814,-7.37038 c 0.19763,0.34876 0.32551,0.65101 0.32551,1.06952 0,0.52313 -0.19763,1.23227 -0.41851,1.79028 -0.47664,1.10439 -1.54615,2.94118 -2.31342,2.94118 -0.47663,0 -0.98814,-0.84864 -0.98814,-1.96466 0,-1.02302 0.45338,-1.96466 1.1974,-2.68542 0.59288,-0.58126 1.3834,-0.98815 2.19716,-1.1509 z"
       id="text20"
       style="font-size:11.6252px;font-family:'Noto Serif CJK JP';-inkscape-font-specification:'Noto Serif CJK JP';text-align:center;fill:#0c4a6e;stroke-width:0.242191"
       transform="scale(0.80443197,1.2431132)"
       aria-label="の" /><path
       d="m 19.569686,132.29113 c 0.418507,0 0.744013,-0.27901 0.744013,-0.76727 0,-0.72076 -0.406882,-1.34852 -1.034643,-1.87165 1.278772,-0.82539 2.34829,-1.67403 3.080678,-2.25529 0.499884,-0.38363 1.034643,-0.24413 1.034643,-0.69751 0,-0.55801 -1.197396,-1.59266 -1.755405,-1.59266 -0.29063,0 -0.511509,0.33713 -0.860265,0.38364 -1.16252,0.1395 -4.766332,0.56963 -6.219482,0.56963 -0.395257,0 -0.616136,-0.2325 -0.964892,-0.58126 l -0.162753,0.0697 c 0,0.37201 0.05813,0.67426 0.139503,0.88352 0.197628,0.48825 0.883515,1.16252 1.336898,1.16252 0.325505,0 0.62776,-0.34876 0.930016,-0.44176 0.999767,-0.30226 3.836316,-0.74401 5.161589,-0.87189 0.186003,-0.0233 0.244129,0.093 0.162752,0.25575 -0.430132,0.74402 -1.336898,1.82516 -2.383166,2.74355 -0.778888,-0.52313 -1.74378,-0.89514 -2.627295,-1.12764 L 16.024,128.32693 c 0.511509,0.38364 1.174145,0.95327 1.860032,1.84841 1.057893,1.2904 1.046268,2.11579 1.685654,2.11579 z"
       id="text19"
       style="font-weight:bold;font-size:11.6252px;font-family:'Noto Serif CJK JP';-inkscape-font-specification:'Noto Serif CJK JP Bold';text-align:center;fill:#0c4a6e;stroke-width:0.242191"
       transform="scale(0.80443197,1.2431132)"
       aria-label="マ" /><path
       d="m 30.532245,133.25602 c 0.418507,0 0.639386,-0.31388 0.639386,-0.81377 0,-0.59288 -0.08138,-2.26691 -0.02325,-3.82469 0.01162,-0.33713 0.104627,-0.54638 0.104627,-0.75563 0,-0.22088 -0.29063,-0.44176 -0.685887,-0.72077 0.697512,-0.63938 1.278772,-1.25552 1.685654,-1.67403 0.31388,-0.3255 0.60451,-0.31388 0.60451,-0.66263 0,-0.41851 -0.697512,-1.06952 -1.336898,-1.25552 -0.348756,-0.11626 -0.720762,-0.093 -1.034643,-0.0697 l -0.05813,0.19762 c 0.348756,0.17438 0.674262,0.40689 0.674262,0.61614 0,0.15113 -0.104627,0.39526 -0.302255,0.70914 -0.860265,1.33689 -3.278307,3.80144 -5.742849,5.21971 l 0.127877,0.22088 c 2.046035,-0.67426 3.836316,-1.97628 4.65008,-2.65055 0.0465,0.12788 0.06975,0.27901 0.06975,0.45339 0.01163,0.51151 0,1.82515 -0.127877,2.96442 -0.0465,0.38364 -0.127877,0.65101 -0.127877,0.87189 0,0.58126 0.279005,1.17415 0.883515,1.17415 z"
       id="text18"
       style="font-weight:bold;font-size:11.6252px;font-family:'Noto Serif CJK JP';-inkscape-font-specification:'Noto Serif CJK JP Bold';text-align:center;fill:#0c4a6e;stroke-width:0.242191"
       transform="scale(0.80443197,1.2431132)"
       aria-label="イ" /><path
       d="m 36.705221,128.97795 0.151127,0.20925 c 1.499651,-0.65101 2.848175,-1.80191 3.859567,-3.03418 0.209254,0.16275 0.395257,0.27901 0.534759,0.27901 0.220879,0 0.406882,-0.0697 0.651011,-0.15113 0.337131,-0.10463 1.174146,-0.29063 1.418275,-0.29063 0.139502,0 0.197628,0.0581 0.139502,0.22088 -0.976517,2.42966 -3.673563,5.37084 -6.626364,6.95187 l 0.139502,0.22088 c 3.801441,-1.32528 6.196232,-3.68519 7.905137,-6.64962 0.209253,-0.34875 0.662636,-0.46501 0.662636,-0.79051 0,-0.47664 -1.18577,-1.09277 -1.534526,-1.09277 -0.255755,0 -0.453383,0.279 -0.744013,0.37201 -0.313881,0.11625 -1.662404,0.30225 -2.069286,0.30225 0.151128,-0.22088 0.302255,-0.43013 0.430133,-0.65101 0.197628,-0.30226 0.348756,-0.34876 0.348756,-0.60451 0,-0.29063 -0.895141,-0.77889 -1.662404,-0.81376 -0.383632,-0.0233 -0.592885,0.0233 -0.813764,0.0697 l -0.03488,0.16275 c 0.372007,0.19763 0.651012,0.47663 0.651012,0.69751 0,0.74401 -1.522902,3.0458 -3.406184,4.59196 z"
       id="text17"
       style="font-weight:bold;font-size:11.6252px;font-family:'Noto Serif CJK JP';-inkscape-font-specification:'Noto Serif CJK JP Bold';text-align:center;fill:#0c4a6e;stroke-width:0.242191"
       transform="scale(0.80443197,1.2431132)"
       aria-label="ク" /><path
       d="m 50.364833,132.24463 c 0.430132,0 0.569635,-0.30226 0.569635,-0.66264 v -0.2325 c 1.255522,-0.0814 2.61567,-0.16276 3.51081,-0.16276 0.639386,0 1.267147,0.093 1.650779,0.093 0.372006,0 0.534759,-0.22087 0.534759,-0.53475 0,-0.33714 -0.360381,-0.56964 -0.755638,-0.63939 l 0.616136,-2.68542 c 0.093,-0.40688 0.58126,-0.54639 0.58126,-0.88352 0,-0.49988 -1.243897,-1.46477 -1.662404,-1.46477 -0.325506,0 -0.453383,0.39525 -0.953266,0.46501 -0.476634,0.0814 -2.59242,0.29063 -3.720065,0.372 -0.01163,-0.0465 -0.0465,-0.0814 -0.104626,-0.12787 -0.616136,-0.52314 -1.243897,-0.58126 -1.953034,-0.54639 l -0.093,0.16275 c 0.465008,0.40689 0.639386,0.61614 0.732388,1.03465 0.174378,0.83701 0.348756,2.9528 0.348756,3.61543 0.01163,0.41851 -0.0465,0.86027 -0.0465,1.16252 0,0.52314 0.360381,1.03465 0.744013,1.03465 z m 0.453383,-5.70798 c 0.209253,0.12788 0.418507,0.20926 0.569635,0.20926 0.232504,0 0.616135,-0.11626 0.988142,-0.17438 0.627761,-0.093 1.929783,-0.19763 2.534293,-0.19763 0.127878,0 0.162753,0.0581 0.162753,0.186 0,0.53476 -0.220879,2.26692 -0.441757,3.56894 -1.104394,0.0697 -2.650546,0.20925 -3.720065,0.30226 z"
       id="text16"
       style="font-weight:bold;font-size:11.6252px;font-family:'Noto Serif CJK JP';-inkscape-font-specification:'Noto Serif CJK JP Bold';text-align:center;fill:#0c4a6e;stroke-width:0.242191"
       transform="scale(0.80443197,1.2431132)"
       aria-label="ロ" /><path
       d="m 60.46713,133.05839 0.139503,0.2325 c 3.766564,-1.22064 5.893976,-3.4178 7.289,-6.25435 0.186003,-0.37201 0.616136,-0.49989 0.616136,-0.88352 0,-0.41851 -1.220646,-1.48802 -1.755405,-1.48802 -0.325506,0 -0.348756,0.186 -0.82539,0.29063 -0.62776,0.1395 -3.557311,0.45338 -4.487327,0.45338 -0.430132,0 -0.720762,-0.29063 -1.046268,-0.61614 l -0.162753,0.0698 c 0,0.31388 0,0.52314 0.06975,0.81377 0.116252,0.43013 0.744013,1.19739 1.267147,1.19739 0.26738,0 0.55801,-0.2325 0.825389,-0.30225 0.662637,-0.17438 3.231806,-0.72076 4.010695,-0.72076 0.08138,0 0.127877,0.0349 0.104626,0.1395 -0.569634,2.54592 -2.871424,5.40572 -6.045104,7.06812 z m 8.38177,-7.59126 c 0.255754,0 0.430132,-0.17437 0.430132,-0.4185 0,-0.22088 -0.093,-0.43013 -0.337131,-0.65101 -0.360381,-0.32551 -0.906765,-0.54639 -1.557777,-0.72077 l -0.116252,0.16276 c 0.546385,0.465 0.837015,0.87189 1.057894,1.18577 0.197628,0.279 0.33713,0.44175 0.523134,0.44175 z m 1.057893,-0.87189 c 0.244129,0 0.383631,-0.16275 0.383631,-0.40688 0,-0.26738 -0.116252,-0.48826 -0.406882,-0.72076 -0.33713,-0.2325 -0.860264,-0.43013 -1.522901,-0.55801 l -0.104627,0.1395 c 0.616136,0.47664 0.860265,0.81377 1.069519,1.08115 0.232504,0.29063 0.360381,0.465 0.58126,0.465 z"
       id="text15"
       style="font-weight:bold;font-size:11.6252px;font-family:'Noto Serif CJK JP';-inkscape-font-specification:'Noto Serif CJK JP Bold';text-align:center;fill:#0c4a6e;stroke-width:0.242191"
       transform="scale(0.80443197,1.2431132)"
       aria-label="ブ" /><path
       d="m 73.61523,132.24463 c 0.430132,0 0.569635,-0.30226 0.569635,-0.66264 v -0.2325 c 1.255521,-0.0814 2.61567,-0.16276 3.51081,-0.16276 0.639386,0 1.267147,0.093 1.650779,0.093 0.372006,0 0.534759,-0.22087 0.534759,-0.53475 0,-0.33714 -0.360381,-0.56964 -0.755638,-0.63939 l 0.616135,-2.68542 c 0.093,-0.40688 0.58126,-0.54639 0.58126,-0.88352 0,-0.49988 -1.243896,-1.46477 -1.662403,-1.46477 -0.325506,0 -0.453383,0.39525 -0.953267,0.46501 -0.476633,0.0814 -2.592419,0.29063 -3.720064,0.372 -0.01162,-0.0465 -0.0465,-0.0814 -0.104627,-0.12787 -0.616135,-0.52314 -1.243896,-0.58126 -1.953033,-0.54639 l -0.093,0.16275 c 0.465008,0.40689 0.639386,0.61614 0.732388,1.03465 0.174378,0.83701 0.348756,2.9528 0.348756,3.61543 0.01163,0.41851 -0.0465,0.86027 -0.0465,1.16252 0,0.52314 0.360381,1.03465 0.744013,1.03465 z m 0.453383,-5.70798 c 0.209253,0.12788 0.418507,0.20926 0.569634,0.20926 0.232504,0 0.616136,-0.11626 0.988142,-0.17438 0.627761,-0.093 1.929784,-0.19763 2.534294,-0.19763 0.127877,0 0.162753,0.0581 0.162753,0.186 0,0.53476 -0.220879,2.26692 -0.441758,3.56894 -1.104394,0.0697 -2.650545,0.20925 -3.720064,0.30226 z"
       id="text14"
       style="font-weight:bold;font-size:11.6252px;font-family:'Noto Serif CJK JP';-inkscape-font-specification:'Noto Serif CJK JP Bold';text-align:center;fill:#0c4a6e;stroke-width:0.242191"
       transform="scale(0.80443197,1.2431132)"
       aria-label="ロ" /><path
       d="m 92.064421,125.36251 c 0.244129,0 0.418507,-0.18601 0.418507,-0.43013 0,-0.22088 -0.08138,-0.41851 -0.337131,-0.65102 -0.360381,-0.3255 -0.906765,-0.54638 -1.557777,-0.70913 l -0.104627,0.15112 c 0.546385,0.46501 0.82539,0.88352 1.046269,1.1974 0.197628,0.27901 0.33713,0.44176 0.534759,0.44176 z m 1.081143,-0.83702 c 0.232504,0 0.383632,-0.16275 0.383632,-0.4185 0,-0.26738 -0.116252,-0.49989 -0.418507,-0.72077 -0.325506,-0.2325 -0.84864,-0.43013 -1.511276,-0.55801 l -0.104627,0.15113 c 0.616136,0.46501 0.84864,0.80214 1.069518,1.06952 0.220879,0.29063 0.348756,0.47663 0.58126,0.47663 z m -10.020922,4.58033 0.151127,0.20926 c 1.499651,-0.65102 2.848174,-1.80191 3.859567,-3.03418 0.209253,0.16275 0.395257,0.29063 0.523134,0.29063 0.232504,0 0.418507,-0.0814 0.662636,-0.16275 0.337131,-0.10463 1.174145,-0.29063 1.418275,-0.29063 0.139502,0 0.197628,0.0581 0.127877,0.22087 -0.964892,2.42967 -3.661938,5.37085 -6.614739,6.9635 l 0.139502,0.22088 c 3.801441,-1.3369 6.196232,-3.69682 7.905137,-6.64962 0.209253,-0.34875 0.651011,-0.465 0.651011,-0.80213 0,-0.47664 -1.174145,-1.09277 -1.522902,-1.09277 -0.255754,0 -0.453382,0.279 -0.755638,0.38363 -0.31388,0.10462 -1.662403,0.30225 -2.05766,0.30225 0.151128,-0.22088 0.302255,-0.43013 0.430132,-0.65101 0.186004,-0.31388 0.348756,-0.36038 0.348756,-0.60451 0,-0.30225 -0.89514,-0.79051 -1.674028,-0.82539 -0.372007,-0.0233 -0.58126,0.0233 -0.813764,0.0814 l -0.02325,0.15113 c 0.372007,0.20925 0.651011,0.47663 0.651011,0.69751 0,0.75564 -1.534526,3.0458 -3.406183,4.59195 z"
       id="text13"
       style="font-weight:bold;font-size:11.6252px;font-family:'Noto Serif CJK JP';-inkscape-font-specification:'Noto Serif CJK JP Bold';text-align:center;fill:#0c4a6e;stroke-width:0.242191"
       transform="scale(0.80443197,1.2431132)"
       aria-label="グ" /><path
       d="m 96.865634,126.10652 c 0.26738,0 0.546385,-0.0233 0.837015,-0.0581 -0.441758,0.74402 -1.023018,1.52291 -1.627528,2.12742 -0.523134,0.55801 -0.953267,0.84864 -0.953267,1.16252 0,0.29063 0.162753,0.465 0.395257,0.465 0.279005,-0.0116 0.60451,-0.55801 1.011392,-0.99976 0.488259,-0.51151 1.255522,-1.16252 1.906533,-1.16252 0.604511,0 0.825389,0.36038 0.87189,1.34852 -1.360148,0.86027 -2.418041,1.79028 -2.418041,2.70867 0,0.91839 0.709137,1.59265 2.871424,1.59265 0.988141,0 2.220411,-0.20925 2.604041,-0.31388 0.37201,-0.10462 0.43014,-0.25575 0.43014,-0.43013 0,-0.22088 -0.20926,-0.36038 -0.61614,-0.36038 -0.55801,0 -1.23227,0.36038 -2.9528,0.36038 -1.104394,0 -1.848407,-0.279 -1.848407,-0.93001 0,-0.68589 0.813764,-1.4299 1.941408,-2.06929 -0.01162,0.62776 -0.05813,1.25552 -0.05813,1.53453 0,0.31388 0.186004,0.44175 0.383632,0.44175 0.232504,0 0.360387,-0.17437 0.360387,-0.45338 0,-0.37201 0,-1.22064 -0.03488,-1.88328 1.05789,-0.53476 2.41803,-1.04627 3.31317,-1.31365 0.45339,-0.1395 0.56964,-0.17438 0.56964,-0.38363 0,-0.32551 -0.33713,-0.70914 -0.62776,-0.90677 -0.19763,-0.15112 -0.44176,-0.2325 -0.86027,-0.31388 l -0.1395,0.20926 c 0.22088,0.10462 0.45338,0.24413 0.56964,0.39525 0.16275,0.18601 0.1395,0.29063 -0.0581,0.39526 -0.69751,0.37201 -1.88328,0.84864 -2.824916,1.36015 -0.116252,-0.87189 -0.55801,-1.37177 -1.290398,-1.37177 -0.465008,0 -0.906765,0.20925 -1.278772,0.39525 -0.08138,0.0465 -0.116252,-0.0116 -0.06975,-0.0697 0.511509,-0.65101 0.837015,-1.16252 1.116019,-1.63915 1.174146,-0.23251 2.325037,-0.62776 2.801667,-0.86027 0.22088,-0.10462 0.3255,-0.20925 0.3255,-0.36038 0,-0.22088 -0.24412,-0.31388 -0.49988,-0.31388 -0.17438,0 -0.25575,0.10463 -0.74401,0.32551 -0.360375,0.15112 -0.918385,0.34875 -1.51127,0.49988 l 0.372006,-0.76726 c 0.127877,-0.25576 0.220879,-0.33713 0.220879,-0.49989 0,-0.279 -0.755638,-0.47663 -1.116019,-0.47663 -0.186003,-0.0116 -0.430133,0.0581 -0.662637,0.11625 v 0.22088 c 0.26738,0.0349 0.511509,0.093 0.662637,0.16275 0.220879,0.093 0.255754,0.17438 0.197628,0.38364 -0.05813,0.29063 -0.197628,0.63938 -0.383631,1.02301 -0.360382,0.0697 -0.720763,0.11626 -1.034643,0.11626 -0.860265,0 -1.057893,-0.24413 -1.522901,-0.73239 l -0.24413,0.15113 c 0.465008,0.91839 0.662637,1.17414 1.615903,1.17414 z"
       id="text12"
       style="font-size:11.6252px;font-family:'Noto Serif CJK JP';-inkscape-font-specification:'Noto Serif CJK JP';text-align:center;fill:#0c4a6e;stroke-width:0.242191"
       transform="scale(0.80443197,1.2431132)"
       aria-label="を" /><path
       d="m 111.23438,122.94447 c -0.60451,1.99953 -1.63915,3.96419 -2.61567,5.18484 l 0.16275,0.12787 c 0.77889,-0.67426 1.51128,-1.59265 2.15066,-2.65054 h 0.90677 v 7.97488 h 0.12788 c 0.39525,0 0.65101,-0.186 0.65101,-0.24412 v -2.8133 h 3.1853 c 0.16276,0 0.27901,-0.0581 0.31388,-0.18601 -0.40688,-0.372 -1.02301,-0.86026 -1.02301,-0.86026 l -0.54639,0.69751 h -1.92978 v -2.15066 h 2.97605 c 0.16275,0 0.26738,-0.0581 0.30226,-0.186 -0.36039,-0.33714 -0.9649,-0.82539 -0.9649,-0.82539 l -0.52313,0.67426 h -1.79028 v -2.08091 h 3.48756 c 0.17438,0 0.26738,-0.0581 0.30225,-0.18601 -0.38363,-0.36038 -1.01139,-0.86026 -1.01139,-0.86026 l -0.58126,0.70914 h -3.68519 c 0.31388,-0.53476 0.59289,-1.1044 0.83702,-1.68566 0.25575,0.0116 0.39525,-0.0814 0.44176,-0.22088 z m -2.7668,-0.0116 c -0.67426,2.25529 -1.82515,4.48733 -2.91792,5.87073 l 0.16275,0.11625 c 0.55801,-0.51151 1.10439,-1.12765 1.60428,-1.83678 v 6.49848 h 0.1395 c 0.29063,0 0.61614,-0.186 0.61614,-0.24412 v -6.78912 c 0.20925,-0.0233 0.31388,-0.10463 0.34875,-0.20926 l -0.49988,-0.186 c 0.48826,-0.80214 0.91839,-1.67403 1.27877,-2.59242 0.25575,0.0233 0.39526,-0.0814 0.45338,-0.22088 z"
       id="text11"
       style="font-size:11.6252px;font-family:'Noto Serif CJK JP';-inkscape-font-specification:'Noto Serif CJK JP';text-align:center;fill:#0c4a6e;stroke-width:0.242191"
       transform="scale(0.80443197,1.2431132)"
       aria-label="作" /><path
       d="m 120.89492,132.81426 0.0233,0.27901 c 4.23157,0.1395 5.74285,-1.40665 5.74285,-2.91793 0,-1.59265 -1.27877,-2.51104 -2.97605,-2.51104 -0.76727,0 -1.69728,0.2325 -2.44129,0.61613 -0.11626,0.0581 -0.15113,0.0349 -0.0465,-0.0697 0.48826,-0.52313 2.33667,-2.35991 2.94118,-2.89467 0.2325,-0.19763 0.62776,-0.26738 0.62776,-0.53476 0,-0.29063 -0.66264,-0.87189 -1.04627,-0.87189 -0.15112,0 -0.20925,0.16275 -0.46501,0.22088 -0.43013,0.12787 -2.15066,0.55801 -2.60404,0.55801 -0.29063,0 -0.45338,-0.36038 -0.60451,-0.69752 l -0.19763,0.0349 c -0.0465,0.20925 -0.0698,0.48826 -0.0233,0.67426 0.0697,0.33713 0.55801,0.82539 0.91839,0.82539 0.20926,0 0.36038,-0.15113 0.58126,-0.24413 0.45338,-0.19763 1.65078,-0.59288 2.10416,-0.68589 0.29063,-0.0697 0.27901,0.0465 0.13951,0.25576 -0.49989,0.62776 -3.01093,3.34806 -4.09208,4.2897 -0.54638,0.47663 -1.02301,0.79051 -1.02301,1.13927 0,0.30225 0.17438,0.56963 0.38363,0.56963 0.186,0 0.279,-0.12787 0.45338,-0.3255 1.16252,-1.31365 2.7203,-2.47617 4.30133,-2.47617 1.30202,0 2.25528,0.70914 2.25528,1.79028 0,1.79028 -1.92978,2.75517 -4.95233,2.97605 z"
       id="text10"
       style="font-size:11.6252px;font-family:'Noto Serif CJK JP';-inkscape-font-specification:'Noto Serif CJK JP';text-align:center;fill:#0c4a6e;stroke-width:0.242191"
       transform="scale(0.80443197,1.2431132)"
       aria-label="ろ" /><path
       d="m 131.99699,133.13977 0.093,0.26738 c 3.13881,-0.48826 5.13834,-1.91816 5.13834,-4.48733 0,-1.54615 -0.81376,-2.49942 -2.03441,-2.49942 -1.2439,0 -2.7668,0.94164 -3.27831,0.94164 -0.26737,0 -0.47663,-0.25575 -0.66263,-0.73239 l -0.20926,0.0698 c -0.0349,0.31388 -0.0697,0.54638 0.0465,0.80213 0.12787,0.31389 0.55801,0.76727 0.94164,0.76727 0.29063,0 0.49988,-0.23251 0.75563,-0.40688 0.44176,-0.29063 1.55778,-1.0114 2.33667,-1.0114 0.72076,0 1.26715,0.68589 1.26715,1.92979 0,2.30179 -1.56941,3.67356 -4.39433,4.35945 z m 0.88352,-7.84701 0.10462,0.22088 c 0.56964,-0.23251 1.53453,-0.62777 2.11579,-0.79052 0.33713,-0.093 0.65101,-0.10462 0.83701,-0.11625 0.25576,-0.0116 0.39526,-0.093 0.39526,-0.24413 0,-0.31388 -0.48826,-0.49988 -0.90676,-0.49988 -0.19763,0 -0.59289,0.093 -0.93002,0.093 -0.66264,0 -1.37177,-0.11625 -2.19716,-0.67426 l -0.13951,0.186 c 0.72077,0.88352 1.69728,0.98814 2.06929,1.04627 -0.32551,0.22088 -0.86027,0.51151 -1.34852,0.77889 z"
       id="text9"
       style="font-size:11.6252px;font-family:'Noto Serif CJK JP';-inkscape-font-specification:'Noto Serif CJK JP';text-align:center;fill:#0c4a6e;stroke-width:0.242191"
       transform="scale(0.80443197,1.2431132)"
       aria-label="う" /><path
       d="m 145.8426,132.81426 c 0.37201,0 0.63939,-0.29063 0.63939,-0.60451 0,-0.34876 -0.26738,-0.62776 -0.63939,-0.62776 -0.372,0 -0.62776,0.279 -0.62776,0.62776 0,0.31388 0.25576,0.60451 0.62776,0.60451 z m -0.15112,-2.59242 h 0.3255 l 0.11625,-2.47617 c 0.16276,-1.74378 0.24413,-2.66217 0.24413,-3.33643 0,-0.41851 -0.22088,-0.62776 -0.53476,-0.62776 -0.30225,0 -0.52313,0.20925 -0.52313,0.62776 0,0.67426 0.0814,1.58103 0.24413,3.33643 z"
       id="text8"
       style="font-size:11.6252px;font-family:'Noto Serif CJK JP';-inkscape-font-specification:'Noto Serif CJK JP';text-align:center;fill:#0c4a6e;stroke-width:0.242191"
       transform="scale(0.80443197,1.2431132)"
       aria-label="！" /><g
       id="g7"
       transform="translate(0.07189181,-1.3002139)"><path
         d="m 56.076987,175.092 c 0.306211,0.18274 0.726017,0.45438 0.928512,0.62724 l 0.286455,-0.36548 c -0.212372,-0.16792 -0.637117,-0.4198 -0.938389,-0.58772 z m -0.256822,1.38289 c 0.301272,0.15311 0.706261,0.38524 0.908756,0.5334 l 0.256822,-0.39017 c -0.207433,-0.14323 -0.627239,-0.3556 -0.908756,-0.48895 z m 2.148417,1.52118 c -0.207433,0.37042 -0.553156,0.75071 -0.893939,0.99272 0.103717,0.0691 0.281517,0.21237 0.365478,0.29633 0.340783,-0.28152 0.726017,-0.72108 0.972961,-1.15076 z m 1.140884,0.21731 c 0.321028,0.32597 0.681566,0.78529 0.84455,1.08656 l 0.390172,-0.25189 c -0.172861,-0.29139 -0.5334,-0.72601 -0.864306,-1.04704 z m 0.09384,-3.47698 v 0.97296 h -0.889001 v -0.96802 h -0.459316 v 0.96802 h -0.607484 v 0.44944 h 0.607484 v 1.12113 h -0.706262 v 0.31115 l -0.237066,-0.21237 c -0.286456,0.55316 -0.661812,1.17546 -0.923573,1.54587 l 0.390172,0.31609 c 0.281517,-0.44944 0.597606,-1.00753 0.84949,-1.50636 h 3.151011 v -0.45438 h -0.721078 v -1.12113 h 0.661812 v -0.44944 h -0.661812 v -0.97296 z m -0.889001,1.4224 h 0.889001 v 1.12113 h -0.889001 z"
         id="text36"
         style="font-weight:500;font-size:4.93889px;font-family:'Noto Sans CJK JP';-inkscape-font-specification:'Noto Sans CJK JP Medium';text-align:center;fill:#0c4a6e;stroke-width:0.264583"
         aria-label="洪" /><path
         d="m 62.44322,174.95865 v 3.72393 l -0.518583,0.0593 0.09878,0.48401 c 0.637117,-0.0889 1.531056,-0.21237 2.365728,-0.33584 l -0.01482,-0.45932 -1.452033,0.19262 v -1.08656 h 1.387828 c 0.276578,1.02235 0.829733,1.76319 1.496483,1.76319 0.400051,0 0.577851,-0.18274 0.651934,-0.96309 -0.128411,-0.0346 -0.306211,-0.12841 -0.409928,-0.22718 -0.02963,0.51858 -0.07902,0.72601 -0.217311,0.72601 -0.375356,0.005 -0.785284,-0.52846 -1.027289,-1.29893 h 1.545872 v -0.43462 h -1.654528 c -0.03457,-0.19262 -0.06421,-0.39017 -0.07902,-0.5976 h 1.373011 v -1.54588 z m 1.768123,2.14348 h -1.28905 v -0.5976 h 1.210028 c 0.01482,0.20249 0.04445,0.40498 0.07902,0.5976 z m -1.28905,-1.70885 h 2.592917 v 0.67662 h -2.592917 z"
         id="text35"
         style="font-weight:500;font-size:4.93889px;font-family:'Noto Sans CJK JP';-inkscape-font-specification:'Noto Sans CJK JP Medium';text-align:center;fill:#0c4a6e;stroke-width:0.264583"
         aria-label="民" /><path
         d="m 68.103191,178.3171 v 0.4445 c 0,0.37042 0.138289,0.47413 0.676628,0.47413 0.108655,0 0.75565,0 0.869244,0 0.395111,0 0.518584,-0.11853 0.567973,-0.57291 -0.118534,-0.0247 -0.291395,-0.079 -0.385234,-0.13829 -0.01975,0.32103 -0.05433,0.36548 -0.232128,0.36548 -0.138289,0 -0.66675,0 -0.770467,0 -0.232127,0 -0.271638,-0.0148 -0.271638,-0.13335 v -0.43956 z m 2.074333,0.17286 c 0.325967,0.19756 0.686506,0.50871 0.844551,0.73589 l 0.3556,-0.25682 c -0.172861,-0.23213 -0.548217,-0.52352 -0.869245,-0.7112 z m -2.716389,-0.18768 c -0.103717,0.28152 -0.330906,0.52846 -0.661811,0.65687 l 0.350661,0.26177 c 0.375356,-0.16793 0.572911,-0.44944 0.696383,-0.77047 z m 0.553156,-2.16817 h 2.182989 v 0.23707 h -2.182989 z m -0.08396,1.49648 h 2.360789 v 0.23707 h -2.36079 z m -0.434623,-0.26176 v 0.76059 h 1.165578 l -0.108655,0.10372 c 0.261761,0.11853 0.563033,0.31115 0.706261,0.46425 l 0.2667,-0.2667 c -0.09878,-0.0988 -0.256822,-0.20743 -0.429683,-0.30127 h 1.64465 v -0.76059 z m 1.348317,-2.65712 v 0.25188 h -1.842206 v 0.28152 h 1.842206 v 0.20743 h -1.442156 v 0.27658 h 3.417712 v -0.27658 h -1.5113 v -0.20743 h 1.871839 v -0.28152 h -1.87184 v -0.25188 z m -1.254478,1.18533 v 0.7112 h 0.651934 l -0.172862,0.0692 c 0.05433,0.0691 0.103717,0.1531 0.143228,0.23212 H 66.90304 v 0.2914 h 4.375857 v -0.2914 h -1.363134 l 0.212373,-0.2667 -0.138289,-0.0346 h 0.661811 v -0.7112 z m 1.056923,1.01247 c -0.03457,-0.0889 -0.09878,-0.20249 -0.172862,-0.30127 h 1.190273 c -0.04445,0.0938 -0.108656,0.20744 -0.167922,0.30127 z"
         id="text34"
         style="font-weight:500;font-size:4.93889px;font-family:'Noto Sans CJK JP';-inkscape-font-specification:'Noto Sans CJK JP Medium';text-align:center;fill:#0c4a6e;stroke-width:0.264583"
         aria-label="憙" /><path
         d="m 76.775885,175.7143 c -0.370417,0.40993 -0.839612,0.77541 -1.373012,1.0915 h -0.493889 v -0.54822 h 1.269295 v -0.21731 h -1.269295 v -0.41981 h -0.232128 v 0.41981 h -1.308805 v 0.21731 h 1.308805 v 0.54822 h -1.728611 v 0.22225 h 2.054578 c -0.66675,0.35066 -1.407583,0.62724 -2.153356,0.82973 0.05433,0.0494 0.123472,0.15805 0.148167,0.20744 0.316089,-0.0938 0.632178,-0.2025 0.943328,-0.32103 v 1.5113 h 0.237067 v -0.16792 h 2.390422 v 0.16792 h 0.232128 v -1.76813 h -2.247195 c 0.31115,-0.13828 0.612423,-0.29139 0.898878,-0.45931 h 1.837267 v -0.22225 h -1.476728 c 0.434622,-0.28646 0.834673,-0.60749 1.165578,-0.96802 z m -2.597856,2.65219 h 2.390422 v 0.51364 h -2.390422 z m 0,-0.19262 v -0.48401 h 2.390422 v 0.48401 z m -1.224845,-2.99297 v 0.22225 h 1.185333 v 0.41487 h 0.232128 v -0.41487 h 1.461912 v 0.41487 h 0.232128 v -0.41487 h 1.205089 v -0.22225 h -1.205089 v -0.41486 h -0.232128 v 0.41486 h -1.461912 v -0.41486 h -0.232128 v 0.41486 z"
         id="text33"
         style="font-weight:300;font-size:4.93889px;font-family:'Noto Sans CJK JP';-inkscape-font-specification:'Noto Sans CJK JP Light';text-align:center;fill:#0c4a6e;stroke-width:0.264583"
         aria-label="著" /><path
         d="m 56.641542,172.78739 -0.06668,-0.0346 c -0.09137,0.19015 -0.316088,0.50623 -0.479071,0.65193 l 0.07161,0.0494 c 0.145697,-0.15557 0.377824,-0.46179 0.474132,-0.66675 z m 1.002593,-0.0247 -0.06667,0.0346 c 0.140758,0.15804 0.335844,0.47413 0.424744,0.64946 l 0.07408,-0.042 c -0.09878,-0.1778 -0.293863,-0.48401 -0.432152,-0.64205 z m -1.508828,-0.4692 v 0.0914 c 0.06174,-0.005 0.106186,-0.007 0.182739,-0.007 h 0.745771 v 0.0321 c 0,0.11853 0,1.02481 0,1.20014 0,0.0667 -0.0321,0.10125 -0.101247,0.10125 -0.06914,0 -0.185208,-0.01 -0.296333,-0.0296 l 0.0049,0.0864 c 0.07655,0.007 0.224719,0.0148 0.301271,0.0148 0.123472,0 0.165453,-0.0444 0.165453,-0.16052 0,-0.14569 0,-1.01 0,-1.21249 v -0.0321 h 0.733423 c 0.05186,0 0.103717,0 0.158045,0.002 v -0.0864 c -0.0568,0.007 -0.113595,0.01 -0.160514,0.01 H 57.1379 v -0.31115 c 0,-0.0445 0.0025,-0.10125 0.0074,-0.13582 H 57.049 c 0.0074,0.0296 0.01482,0.0938 0.01482,0.13582 v 0.31115 h -0.748241 c -0.07902,0 -0.116063,-0.002 -0.180269,-0.01 z"
         id="text41"
         style="font-weight:100;font-size:2.46944px;font-family:'Noto Sans CJK JP';-inkscape-font-specification:'Noto Sans CJK JP Thin';text-align:center;fill:#0c4a6e;stroke-width:0.264583"
         aria-label="ホ" /><path
         d="m 58.819589,172.00952 -0.04939,0.0519 c 0.187678,0.121 0.491419,0.38276 0.612421,0.50129 l 0.0568,-0.0568 c -0.128411,-0.12348 -0.442029,-0.3803 -0.619829,-0.49636 z m -0.113594,1.6644 0.04939,0.079 c 0.476602,-0.0938 0.782813,-0.26176 1.027287,-0.42227 0.348192,-0.22966 0.595136,-0.56056 0.745771,-0.83961 l -0.04692,-0.0765 c -0.128411,0.27657 -0.407458,0.63217 -0.74824,0.85936 -0.229658,0.15064 -0.553155,0.32597 -1.027287,0.40005 z"
         id="text40"
         style="font-weight:100;font-size:2.46944px;font-family:'Noto Sans CJK JP';-inkscape-font-specification:'Noto Sans CJK JP Thin';text-align:center;fill:#0c4a6e;stroke-width:0.264583"
         aria-label="ン" /><path
         d="m 63.652276,171.94531 -0.02963,0.0716 c 0.333375,0.0445 0.92851,0.17039 1.239659,0.28398 l 0.0321,-0.0741 c -0.311149,-0.10866 -0.92604,-0.23954 -1.242128,-0.28152 z m -0.113594,0.63959 -0.0321,0.0716 c 0.333374,0.0469 0.906284,0.17533 1.197678,0.2914 l 0.03457,-0.0716 c -0.30621,-0.11853 -0.876651,-0.2346 -1.200147,-0.29139 z m -0.140759,0.72848 -0.02963,0.0692 c 0.400049,0.0642 1.089023,0.22472 1.41005,0.37535 l 0.03457,-0.0716 c -0.335844,-0.1457 -1.012471,-0.30621 -1.41499,-0.37289 z"
         id="text39"
         style="font-weight:100;font-size:2.46944px;font-family:'Noto Sans CJK JP';-inkscape-font-specification:'Noto Sans CJK JP Thin';text-align:center;fill:#0c4a6e;stroke-width:0.264583"
         aria-label="ミ" /><path
         d="m 65.931569,172.00952 -0.04939,0.0519 c 0.187677,0.121 0.491418,0.38276 0.612421,0.50129 l 0.0568,-0.0568 c -0.128411,-0.12348 -0.44203,-0.3803 -0.61983,-0.49636 z m -0.113594,1.6644 0.04939,0.079 c 0.476602,-0.0938 0.782812,-0.26176 1.027287,-0.42227 0.348191,-0.22966 0.595135,-0.56056 0.745771,-0.83961 l -0.04692,-0.0765 c -0.12841,0.27657 -0.407457,0.63217 -0.74824,0.85936 -0.229658,0.15064 -0.553154,0.32597 -1.027287,0.40005 z"
         id="text38"
         style="font-weight:100;font-size:2.46944px;font-family:'Noto Sans CJK JP';-inkscape-font-specification:'Noto Sans CJK JP Thin';text-align:center;fill:#0c4a6e;stroke-width:0.264583"
         aria-label="ン" /><path
         d="m 68.596092,171.89592 h -0.09631 c 0.0099,0.0395 0.01235,0.084 0.01235,0.14323 0,0.11113 0,1.18039 0,1.37301 0,0.18768 0.08643,0.24447 0.251883,0.27411 0.09878,0.0173 0.242005,0.0197 0.375355,0.0197 0.266699,0 0.634646,-0.0222 0.829731,-0.0519 v -0.0914 c -0.207433,0.0543 -0.565501,0.0741 -0.829731,0.0741 -0.13335,0 -0.286456,-0.01 -0.367947,-0.0247 -0.128411,-0.0272 -0.185208,-0.0642 -0.185208,-0.2099 v -0.62971 c 0.283986,-0.0765 0.790221,-0.22718 1.096431,-0.35806 0.06668,-0.0247 0.13335,-0.0568 0.180269,-0.0766 l -0.04198,-0.084 c -0.04198,0.0296 -0.103717,0.0617 -0.165453,0.0914 -0.298802,0.13335 -0.785281,0.27905 -1.069267,0.34325 v -0.64946 c 0,-0.0667 0.0049,-0.10125 0.0099,-0.14323 z"
         id="text37"
         style="font-weight:100;font-size:2.46944px;font-family:'Noto Sans CJK JP';-inkscape-font-specification:'Noto Sans CJK JP Thin';text-align:center;fill:#0c4a6e;stroke-width:0.264583"
         aria-label="ヒ" /></g></g></svg>
